<mxfile host="app.diagrams.net" modified="2024-05-21T14:24:41.366Z" agent="Mozilla/5.0 (Windows NT 10.0; Win64; x64) AppleWebKit/537.36 (KHTML, like Gecko) Chrome/124.0.0.0 Safari/537.36" etag="_taTEbKcHN5P3Eake6Ew" version="24.4.4" type="device">
  <diagram name="Página-1" id="xHYMD9SHm7r5hfUj-8MA">
    <mxGraphModel dx="1687" dy="878" grid="1" gridSize="10" guides="1" tooltips="1" connect="1" arrows="1" fold="1" page="1" pageScale="1" pageWidth="827" pageHeight="1169" math="0" shadow="0">
      <root>
        <mxCell id="0" />
        <mxCell id="1" parent="0" />
        <mxCell id="W3xl9WGtQk4DQNVPJ3IO-2" value="&lt;b&gt;SocialFut&lt;/b&gt;" style="text;html=1;align=center;verticalAlign=middle;resizable=0;points=[];autosize=1;strokeColor=none;fillColor=none;" parent="1" vertex="1">
          <mxGeometry x="460" y="110" width="80" height="30" as="geometry" />
        </mxCell>
        <mxCell id="y7ZvsjS9suwP39HGbqxo-19" style="edgeStyle=orthogonalEdgeStyle;rounded=0;orthogonalLoop=1;jettySize=auto;html=1;" edge="1" parent="1" source="W3xl9WGtQk4DQNVPJ3IO-3" target="y7ZvsjS9suwP39HGbqxo-14">
          <mxGeometry relative="1" as="geometry" />
        </mxCell>
        <mxCell id="y7ZvsjS9suwP39HGbqxo-25" style="edgeStyle=orthogonalEdgeStyle;rounded=0;orthogonalLoop=1;jettySize=auto;html=1;" edge="1" parent="1" source="W3xl9WGtQk4DQNVPJ3IO-3" target="W3xl9WGtQk4DQNVPJ3IO-8">
          <mxGeometry relative="1" as="geometry">
            <Array as="points">
              <mxPoint x="95" y="190" />
              <mxPoint x="600" y="190" />
            </Array>
          </mxGeometry>
        </mxCell>
        <mxCell id="y7ZvsjS9suwP39HGbqxo-29" style="edgeStyle=orthogonalEdgeStyle;rounded=0;orthogonalLoop=1;jettySize=auto;html=1;" edge="1" parent="1" source="W3xl9WGtQk4DQNVPJ3IO-3" target="W3xl9WGtQk4DQNVPJ3IO-6">
          <mxGeometry relative="1" as="geometry">
            <Array as="points">
              <mxPoint x="95" y="160" />
              <mxPoint x="800" y="160" />
            </Array>
          </mxGeometry>
        </mxCell>
        <mxCell id="W3xl9WGtQk4DQNVPJ3IO-3" value="Usuario" style="shape=umlActor;verticalLabelPosition=bottom;verticalAlign=top;html=1;outlineConnect=0;" parent="1" vertex="1">
          <mxGeometry x="80" y="200" width="30" height="60" as="geometry" />
        </mxCell>
        <mxCell id="W3xl9WGtQk4DQNVPJ3IO-6" value="VER PARTIDOS DISPONIBLES" style="rounded=1;whiteSpace=wrap;html=1;" parent="1" vertex="1">
          <mxGeometry x="740" y="290" width="120" height="60" as="geometry" />
        </mxCell>
        <mxCell id="W3xl9WGtQk4DQNVPJ3IO-7" value="VER PERFIL DEL USUARIO" style="rounded=1;whiteSpace=wrap;html=1;" parent="1" vertex="1">
          <mxGeometry x="354" y="290" width="120" height="60" as="geometry" />
        </mxCell>
        <mxCell id="W3xl9WGtQk4DQNVPJ3IO-8" value="VER PERFIL DEL EQUIPO" style="rounded=1;whiteSpace=wrap;html=1;" parent="1" vertex="1">
          <mxGeometry x="540" y="290" width="120" height="60" as="geometry" />
        </mxCell>
        <mxCell id="y7ZvsjS9suwP39HGbqxo-20" style="edgeStyle=orthogonalEdgeStyle;rounded=0;orthogonalLoop=1;jettySize=auto;html=1;" edge="1" parent="1" source="W3xl9WGtQk4DQNVPJ3IO-10" target="y7ZvsjS9suwP39HGbqxo-13">
          <mxGeometry relative="1" as="geometry" />
        </mxCell>
        <mxCell id="y7ZvsjS9suwP39HGbqxo-26" style="edgeStyle=orthogonalEdgeStyle;rounded=0;orthogonalLoop=1;jettySize=auto;html=1;entryX=0.5;entryY=1;entryDx=0;entryDy=0;" edge="1" parent="1" target="W3xl9WGtQk4DQNVPJ3IO-8">
          <mxGeometry relative="1" as="geometry">
            <mxPoint x="130" y="440" as="sourcePoint" />
            <Array as="points">
              <mxPoint x="600" y="440" />
            </Array>
          </mxGeometry>
        </mxCell>
        <mxCell id="y7ZvsjS9suwP39HGbqxo-27" style="edgeStyle=orthogonalEdgeStyle;rounded=0;orthogonalLoop=1;jettySize=auto;html=1;entryX=0;entryY=0.5;entryDx=0;entryDy=0;" edge="1" parent="1" target="W3xl9WGtQk4DQNVPJ3IO-16">
          <mxGeometry relative="1" as="geometry">
            <mxPoint x="95" y="450" as="sourcePoint" />
            <Array as="points">
              <mxPoint x="95" y="500" />
            </Array>
          </mxGeometry>
        </mxCell>
        <mxCell id="y7ZvsjS9suwP39HGbqxo-30" style="edgeStyle=orthogonalEdgeStyle;rounded=0;orthogonalLoop=1;jettySize=auto;html=1;entryX=0.5;entryY=1;entryDx=0;entryDy=0;" edge="1" parent="1" source="W3xl9WGtQk4DQNVPJ3IO-10" target="W3xl9WGtQk4DQNVPJ3IO-6">
          <mxGeometry relative="1" as="geometry">
            <Array as="points">
              <mxPoint x="95" y="550" />
              <mxPoint x="800" y="550" />
            </Array>
          </mxGeometry>
        </mxCell>
        <mxCell id="y7ZvsjS9suwP39HGbqxo-31" style="edgeStyle=orthogonalEdgeStyle;rounded=0;orthogonalLoop=1;jettySize=auto;html=1;entryX=0;entryY=0.5;entryDx=0;entryDy=0;" edge="1" parent="1" source="W3xl9WGtQk4DQNVPJ3IO-10" target="W3xl9WGtQk4DQNVPJ3IO-13">
          <mxGeometry relative="1" as="geometry">
            <Array as="points">
              <mxPoint x="95" y="615" />
            </Array>
          </mxGeometry>
        </mxCell>
        <mxCell id="y7ZvsjS9suwP39HGbqxo-37" style="edgeStyle=orthogonalEdgeStyle;rounded=0;orthogonalLoop=1;jettySize=auto;html=1;entryX=0.5;entryY=1;entryDx=0;entryDy=0;" edge="1" parent="1" source="W3xl9WGtQk4DQNVPJ3IO-10" target="y7ZvsjS9suwP39HGbqxo-33">
          <mxGeometry relative="1" as="geometry">
            <Array as="points">
              <mxPoint x="95" y="665" />
              <mxPoint x="920" y="665" />
            </Array>
          </mxGeometry>
        </mxCell>
        <mxCell id="W3xl9WGtQk4DQNVPJ3IO-10" value="Capitan" style="shape=umlActor;verticalLabelPosition=bottom;verticalAlign=top;html=1;outlineConnect=0;" parent="1" vertex="1">
          <mxGeometry x="80" y="360" width="30" height="60" as="geometry" />
        </mxCell>
        <mxCell id="y7ZvsjS9suwP39HGbqxo-32" style="edgeStyle=orthogonalEdgeStyle;rounded=0;orthogonalLoop=1;jettySize=auto;html=1;entryX=0;entryY=0.5;entryDx=0;entryDy=0;dashed=1;dashPattern=8 8;" edge="1" parent="1" source="W3xl9WGtQk4DQNVPJ3IO-13" target="W3xl9WGtQk4DQNVPJ3IO-6">
          <mxGeometry relative="1" as="geometry" />
        </mxCell>
        <mxCell id="W3xl9WGtQk4DQNVPJ3IO-13" value="CREACIÓN DE PARTIDOS" style="rounded=1;whiteSpace=wrap;html=1;" parent="1" vertex="1">
          <mxGeometry x="630" y="585" width="120" height="60" as="geometry" />
        </mxCell>
        <mxCell id="y7ZvsjS9suwP39HGbqxo-28" style="edgeStyle=orthogonalEdgeStyle;rounded=0;orthogonalLoop=1;jettySize=auto;html=1;entryX=0.25;entryY=1;entryDx=0;entryDy=0;dashed=1;dashPattern=8 8;startArrow=classic;startFill=1;endArrow=none;endFill=0;" edge="1" parent="1" source="W3xl9WGtQk4DQNVPJ3IO-16" target="W3xl9WGtQk4DQNVPJ3IO-8">
          <mxGeometry relative="1" as="geometry" />
        </mxCell>
        <mxCell id="W3xl9WGtQk4DQNVPJ3IO-16" value="&lt;font style=&quot;font-size: 12px;&quot;&gt;MODIFICAR PERFIL DEL EQUIPO&lt;/font&gt;" style="rounded=1;whiteSpace=wrap;html=1;" parent="1" vertex="1">
          <mxGeometry x="354" y="470" width="120" height="60" as="geometry" />
        </mxCell>
        <mxCell id="y7ZvsjS9suwP39HGbqxo-13" value="CREAR EQUIPO" style="rounded=1;whiteSpace=wrap;html=1;" vertex="1" parent="1">
          <mxGeometry x="180" y="360" width="120" height="60" as="geometry" />
        </mxCell>
        <mxCell id="y7ZvsjS9suwP39HGbqxo-14" value="UNIRSE A&amp;nbsp;&lt;div&gt;EQUIPO&lt;/div&gt;" style="rounded=1;whiteSpace=wrap;html=1;" vertex="1" parent="1">
          <mxGeometry x="180" y="200" width="120" height="60" as="geometry" />
        </mxCell>
        <mxCell id="y7ZvsjS9suwP39HGbqxo-22" style="edgeStyle=orthogonalEdgeStyle;rounded=0;orthogonalLoop=1;jettySize=auto;html=1;" edge="1" parent="1" source="W3xl9WGtQk4DQNVPJ3IO-10" target="W3xl9WGtQk4DQNVPJ3IO-7">
          <mxGeometry relative="1" as="geometry">
            <Array as="points">
              <mxPoint x="95" y="330" />
            </Array>
          </mxGeometry>
        </mxCell>
        <mxCell id="y7ZvsjS9suwP39HGbqxo-23" style="edgeStyle=orthogonalEdgeStyle;rounded=0;orthogonalLoop=1;jettySize=auto;html=1;entryX=0.005;entryY=0.377;entryDx=0;entryDy=0;entryPerimeter=0;" edge="1" parent="1" target="W3xl9WGtQk4DQNVPJ3IO-7">
          <mxGeometry relative="1" as="geometry">
            <mxPoint x="95" y="280" as="sourcePoint" />
            <Array as="points">
              <mxPoint x="95" y="313" />
              <mxPoint x="232" y="313" />
            </Array>
          </mxGeometry>
        </mxCell>
        <mxCell id="y7ZvsjS9suwP39HGbqxo-38" style="edgeStyle=orthogonalEdgeStyle;rounded=0;orthogonalLoop=1;jettySize=auto;html=1;entryX=1;entryY=0.5;entryDx=0;entryDy=0;dashed=1;dashPattern=8 8;endArrow=none;endFill=0;startArrow=classic;startFill=1;" edge="1" parent="1" source="y7ZvsjS9suwP39HGbqxo-33" target="W3xl9WGtQk4DQNVPJ3IO-6">
          <mxGeometry relative="1" as="geometry" />
        </mxCell>
        <mxCell id="y7ZvsjS9suwP39HGbqxo-33" value="UNIRSE&amp;nbsp; A PARTIDOS DISPONIBLES" style="rounded=1;whiteSpace=wrap;html=1;" vertex="1" parent="1">
          <mxGeometry x="860" y="585" width="120" height="60" as="geometry" />
        </mxCell>
      </root>
    </mxGraphModel>
  </diagram>
</mxfile>
